<svg width="146" height="225" viewBox="0 0 146 225" fill="none" xmlns="http://www.w3.org/2000/svg">
<circle cx="7.48718" cy="7.48718" r="7.48718" fill="#D9D9D9"/>
<circle cx="33.6923" cy="7.48724" r="7.48718" fill="#D9D9D9"/>
<circle cx="59.8973" cy="7.48724" r="7.48718" fill="#D9D9D9"/>
<circle cx="7.48718" cy="33.6924" r="7.48718" fill="#D9D9D9"/>
<circle cx="7.48718" cy="112.308" r="7.48718" fill="#D9D9D9"/>
<circle cx="7.48718" cy="190.923" r="7.48718" fill="#D9D9D9"/>
<circle cx="86.1027" cy="190.923" r="7.48718" fill="#D9D9D9"/>
<circle cx="33.6923" cy="33.6924" r="7.48718" fill="#D9D9D9"/>
<circle cx="33.6923" cy="112.308" r="7.48718" fill="#D9D9D9"/>
<circle cx="33.6923" cy="190.923" r="7.48718" fill="#D9D9D9"/>
<circle cx="112.308" cy="190.923" r="7.48718" fill="#D9D9D9"/>
<circle cx="59.8973" cy="33.6924" r="7.48718" fill="#D9D9D9"/>
<circle cx="59.8973" cy="112.308" r="7.48718" fill="#D9D9D9"/>
<circle cx="59.8973" cy="190.923" r="7.48718" fill="#D9D9D9"/>
<circle cx="138.513" cy="190.923" r="7.48718" fill="#D9D9D9"/>
<circle cx="7.48718" cy="59.8975" r="7.48718" fill="#D9D9D9"/>
<circle cx="7.48718" cy="138.513" r="7.48718" fill="#D9D9D9"/>
<circle cx="7.48718" cy="217.128" r="7.48718" fill="#D9D9D9"/>
<circle cx="86.1027" cy="217.128" r="7.48718" fill="#D9D9D9"/>
<circle cx="33.6923" cy="59.8975" r="7.48718" fill="#D9D9D9"/>
<circle cx="33.6923" cy="138.513" r="7.48718" fill="#D9D9D9"/>
<circle cx="33.6923" cy="217.128" r="7.48718" fill="#D9D9D9"/>
<circle cx="112.308" cy="217.128" r="7.48718" fill="#D9D9D9"/>
<circle cx="59.8973" cy="59.8975" r="7.48718" fill="#D9D9D9"/>
<circle cx="59.8973" cy="138.513" r="7.48718" fill="#D9D9D9"/>
<circle cx="59.8973" cy="217.128" r="7.48718" fill="#D9D9D9"/>
<circle cx="138.513" cy="217.128" r="7.48718" fill="#D9D9D9"/>
<circle cx="7.48718" cy="86.1026" r="7.48718" fill="#D9D9D9"/>
<circle cx="7.48718" cy="164.718" r="7.48718" fill="#D9D9D9"/>
<circle cx="33.6923" cy="86.1026" r="7.48718" fill="#D9D9D9"/>
<circle cx="33.6923" cy="164.718" r="7.48718" fill="#D9D9D9"/>
<circle cx="59.8973" cy="86.1026" r="7.48718" fill="#D9D9D9"/>
<circle cx="59.8973" cy="164.718" r="7.48718" fill="#D9D9D9"/>
</svg>
