<?xml version="1.0" encoding="utf-8"?>
<!-- Generator: Adobe Illustrator 26.0.1, SVG Export Plug-In . SVG Version: 6.00 Build 0)  -->
<svg version="1.1" id="Layer_1" xmlns="http://www.w3.org/2000/svg" xmlns:xlink="http://www.w3.org/1999/xlink" x="0px" y="0px" width="100"
	 viewBox="0 0 351.5 351.5" style="enable-background:new 0 0 351.5 351.5;" xml:space="preserve">
<style type="text/css">
	
		.st0{clip-path:url(#SVGID_00000103242679245882745390000004254119035545821887_);fill:url(#SVGID_00000165928706240634691670000006128250398318885255_);}
	
		.st1{clip-path:url(#SVGID_00000046327312338266891110000010210578319071735434_);fill:url(#SVGID_00000116935099597270679980000014488909355997973900_);}
	.st2{filter:url(#Adobe_OpacityMaskFilter);}
	.st3{fill:url(#SVGID_00000029012185951758512440000015495500041629910168_);}
	.st4{mask:url(#SVGID_00000115493273207374499100000017876881391991982209_);}
	.st5{clip-path:url(#SVGID_00000118380109789495519570000004404377198062187412_);fill:#9AC61E;}
</style>
<g>
	<g>
		<defs>
			<path id="SVGID_1_" d="M66.3,45.4c-12.1,0-22,9.9-22,22v148.9v67.8c0,12.1,9.9,22,22,22h42.4c12.1,0,22-9.9,22-22v-67.8V67.4
				c0-12.1-9.9-22-22-22H66.3z"/>
		</defs>
		<clipPath id="SVGID_00000024696433043604306810000015194595353430872511_">
			<use xlink:href="#SVGID_1_"  style="overflow:visible;"/>
		</clipPath>
		
			<linearGradient id="SVGID_00000109024840309649768080000001603604600708120988_" gradientUnits="userSpaceOnUse" x1="-224.0339" y1="-587.1065" x2="-221.8339" y2="-587.1065" gradientTransform="matrix(42.664 -117.2184 -117.2184 -42.664 -59220.8867 -51004.5156)">
			<stop  offset="0" style="stop-color:#DE007B"/>
			<stop  offset="4.264876e-02" style="stop-color:#E01070"/>
			<stop  offset="0.1578" style="stop-color:#E53555"/>
			<stop  offset="0.273" style="stop-color:#E95241"/>
			<stop  offset="0.387" style="stop-color:#EC6632"/>
			<stop  offset="0.4993" style="stop-color:#ED7329"/>
			<stop  offset="0.6077" style="stop-color:#EE7726"/>
			<stop  offset="0.6665" style="stop-color:#F18623"/>
			<stop  offset="0.7967" style="stop-color:#F7A31E"/>
			<stop  offset="0.9099" style="stop-color:#FBB51A"/>
			<stop  offset="0.9924" style="stop-color:#FCBB19"/>
			<stop  offset="1" style="stop-color:#FCBB19"/>
		</linearGradient>
		
			<polygon style="clip-path:url(#SVGID_00000024696433043604306810000015194595353430872511_);fill:url(#SVGID_00000109024840309649768080000001603604600708120988_);" points="
			-39.4,275.6 54.5,17.7 214.5,75.9 120.6,333.8 		"/>
	</g>
	<g>
		<defs>
			<path id="SVGID_00000063607131292178678950000005120971119137184669_" d="M222.9,45.4h-0.3l-0.3,0l-0.3,0l-0.3,0l-0.3,0l-0.3,0
				l-0.3,0l-0.3,0l-0.3,0l-0.3,0l-0.3,0l-0.3,0l-0.3,0l-0.3,0l-0.3,0l-0.3,0l-0.3,0L218,46l-0.3,0.1l-0.3,0.1l-0.3,0.1l-0.3,0.1
				l-0.3,0.1l-0.3,0.1l-0.3,0.1l-0.2,0.1l-0.3,0.1l-0.2,0.1l-0.2,0.1l-0.2,0.1l-0.2,0.1l-0.2,0.1l-0.2,0.1l-0.2,0.1l-0.2,0.1
				l-0.2,0.1l-0.2,0.1l-0.2,0.1l-0.2,0.1l-0.2,0.1l-0.2,0.1l-0.2,0.1l-0.2,0.1l-0.2,0.1l-0.2,0.1l-0.2,0.1l-0.2,0.1l-0.2,0.1
				l-0.2,0.2v0l-0.2,0.1l-0.2,0.2l-0.2,0.2l-0.2,0.2l-0.2,0.2l-0.2,0.2l-0.2,0.2l-0.2,0.2l-0.2,0.2l-0.2,0.2l-0.2,0.2l-0.2,0.2
				l-0.2,0.2l-0.2,0.2l-0.2,0.2l-47.9,47.9c-8.6,8.6-8.6,22.5,0,31.1l30,30l2.9,2.9c6.6,6.6,6.6,17.3,0,23.9l-2.9,2.9l0,0l-30,30
				c-8.6,8.6-8.6,22.5,0,31.1l47.9,47.9c4.3,4.3,9.5,6.4,15.6,6.4h60c9.1,0,16.8-5.2,20.3-13.6c3.5-8.4,1.7-17.5-4.8-24l-77.9-77.9
				l0,0l-2.9-2.9c-6.6-6.6-6.6-17.3,0-23.9l2.9-2.9L298.4,83c0.1-0.1,0.2-0.2,0.3-0.3c0.1-0.1,0.2-0.2,0.3-0.3
				c0.1-0.1,0.2-0.2,0.3-0.3c0.1-0.1,0.2-0.2,0.3-0.3c0.1-0.1,0.2-0.2,0.3-0.3c0.1-0.1,0.2-0.2,0.3-0.3c0.1-0.1,0.2-0.2,0.3-0.3
				c0.1-0.1,0.2-0.2,0.2-0.3l0.2-0.3c0.1-0.1,0.2-0.2,0.2-0.3c0.1-0.1,0.2-0.2,0.2-0.3c0.1-0.1,0.2-0.2,0.2-0.3
				c0.1-0.1,0.1-0.2,0.2-0.3c0.1-0.1,0.1-0.2,0.2-0.4c0.1-0.1,0.1-0.2,0.2-0.3c0.1-0.1,0.1-0.2,0.2-0.3c0.1-0.1,0.1-0.2,0.2-0.4
				c0.1-0.1,0.1-0.2,0.2-0.4c0.1-0.1,0.1-0.2,0.2-0.4c0.1-0.1,0.1-0.2,0.2-0.4c0.1-0.1,0.1-0.2,0.2-0.4c0-0.1,0.1-0.2,0.1-0.4
				c0.1-0.1,0.1-0.2,0.2-0.4c0-0.1,0.1-0.2,0.1-0.4c0-0.1,0.1-0.3,0.1-0.4c0-0.1,0.1-0.2,0.1-0.4c0-0.1,0.1-0.2,0.1-0.4
				c0-0.1,0.1-0.3,0.1-0.4c0-0.1,0.1-0.3,0.1-0.4c0-0.1,0.1-0.3,0.1-0.4c0-0.1,0.1-0.3,0.1-0.4c0-0.1,0.1-0.3,0.1-0.4
				c0-0.1,0-0.3,0.1-0.4c0-0.1,0-0.3,0.1-0.4c0-0.1,0-0.3,0.1-0.4c0-0.1,0-0.3,0-0.4c0-0.1,0-0.3,0-0.4c0-0.1,0-0.3,0-0.4
				c0-0.1,0-0.3,0-0.4c0-0.1,0-0.3,0-0.4c0-0.1,0-0.3,0-0.4c0-0.1,0-0.3,0-0.4c0-0.1,0-0.3,0-0.4c0-0.1,0-0.3,0-0.4
				c0-0.1,0-0.3,0-0.4c0-0.1,0-0.3,0-0.4c0-0.1,0-0.3,0-0.4c0-0.1,0-0.3,0-0.4c0-0.1,0-0.3,0-0.4c0-0.1,0-0.3,0-0.4
				c0-0.1,0-0.3-0.1-0.4c0-0.1,0-0.3-0.1-0.4c0-0.1,0-0.3-0.1-0.4h0c0-0.1-0.1-0.3-0.1-0.4h0c0-0.1-0.1-0.3-0.1-0.4
				c0-0.1-0.1-0.3-0.1-0.4c0-0.1-0.1-0.3-0.1-0.4l-0.1-0.4c0-0.1-0.1-0.3-0.1-0.4h0c0-0.1-0.1-0.3-0.1-0.4c0-0.1-0.1-0.3-0.1-0.4
				c0-0.1-0.1-0.3-0.1-0.4c0-0.1-0.1-0.3-0.2-0.4c-0.1-0.1-0.1-0.3-0.2-0.4c-0.1-0.1-0.1-0.3-0.2-0.4c-0.1-0.1-0.1-0.3-0.2-0.4
				c-0.1-0.1-0.1-0.3-0.2-0.4c-0.1-0.1-0.1-0.3-0.2-0.4c-0.1-0.1-0.1-0.2-0.2-0.4c-0.1-0.1-0.1-0.2-0.2-0.4
				c-0.1-0.1-0.1-0.2-0.2-0.4c-0.1-0.1-0.1-0.2-0.2-0.4c-0.1-0.1-0.1-0.2-0.2-0.3c-0.1-0.1-0.1-0.2-0.2-0.3
				c-0.1-0.1-0.1-0.2-0.2-0.3c-0.1-0.1-0.2-0.2-0.2-0.3c-0.1-0.1-0.2-0.2-0.2-0.3c-0.1-0.1-0.2-0.2-0.2-0.3
				c-0.1-0.1-0.2-0.2-0.2-0.3c-0.1-0.1-0.2-0.2-0.2-0.3c-0.1-0.1-0.2-0.2-0.3-0.3c-0.1-0.1-0.2-0.2-0.3-0.3
				c-0.1-0.1-0.2-0.2-0.3-0.3c-0.1-0.1-0.2-0.2-0.3-0.3c-0.1-0.1-0.2-0.2-0.3-0.3c-0.1-0.1-0.2-0.2-0.3-0.3
				c-0.1-0.1-0.2-0.2-0.3-0.3c-0.1-0.1-0.2-0.2-0.3-0.3c-0.1-0.1-0.2-0.2-0.3-0.3c-0.1-0.1-0.2-0.2-0.3-0.3
				c-0.1-0.1-0.2-0.2-0.3-0.3c-0.1-0.1-0.2-0.2-0.3-0.2c-0.1-0.1-0.2-0.2-0.3-0.2l-0.3-0.2c-0.1-0.1-0.2-0.2-0.3-0.2
				c-0.1-0.1-0.2-0.1-0.3-0.2c-0.1-0.1-0.2-0.1-0.3-0.2c-0.1-0.1-0.2-0.1-0.3-0.2c-0.1-0.1-0.2-0.1-0.3-0.2
				c-0.1-0.1-0.2-0.1-0.3-0.2c-0.1-0.1-0.2-0.1-0.3-0.2c-0.1-0.1-0.2-0.1-0.3-0.2c-0.1-0.1-0.2-0.1-0.4-0.2
				c-0.1-0.1-0.2-0.1-0.4-0.2l-0.4-0.2c-0.1-0.1-0.2-0.1-0.4-0.2l-0.4-0.2c-0.1,0-0.2-0.1-0.4-0.1l-0.4-0.1c-0.1,0-0.2-0.1-0.4-0.1
				c-0.1,0-0.2-0.1-0.4-0.1c-0.1,0-0.3-0.1-0.4-0.1c-0.1,0-0.3-0.1-0.4-0.1c-0.1,0-0.3-0.1-0.4-0.1c-0.1,0-0.3-0.1-0.4-0.1
				c-0.1,0-0.3-0.1-0.4-0.1c-0.1,0-0.3-0.1-0.4-0.1c-0.1,0-0.3,0-0.4-0.1c-0.1,0-0.3,0-0.4-0.1c-0.1,0-0.3,0-0.4-0.1
				c-0.1,0-0.3,0-0.4-0.1c-0.1,0-0.3,0-0.4,0c-0.1,0-0.3,0-0.4,0c-0.1,0-0.3,0-0.4,0c-0.1,0-0.3,0-0.4,0c-0.1,0-0.3,0-0.4,0
				c-0.1,0-0.3,0-0.4,0c-0.1,0-0.3,0-0.4,0H222.9z"/>
		</defs>
		<clipPath id="SVGID_00000101094342003842507330000006605784530649527455_">
			<use xlink:href="#SVGID_00000063607131292178678950000005120971119137184669_"  style="overflow:visible;"/>
		</clipPath>
		
			<linearGradient id="SVGID_00000127045432311851720680000008894396163981349787_" gradientUnits="userSpaceOnUse" x1="-221.3189" y1="-578.5834" x2="-219.1192" y2="-578.5834" gradientTransform="matrix(-93.7381 -93.7381 -93.7381 93.7381 -74649.3359 33768.2461)">
			<stop  offset="0" style="stop-color:#21499C"/>
			<stop  offset="7.989500e-02" style="stop-color:#21499C"/>
			<stop  offset="8.547593e-02" style="stop-color:#214A9D"/>
			<stop  offset="0.2628" style="stop-color:#1E75BB"/>
			<stop  offset="0.4226" style="stop-color:#1C94D0"/>
			<stop  offset="0.5577" style="stop-color:#1AA7DD"/>
			<stop  offset="0.652" style="stop-color:#1AAEE2"/>
			<stop  offset="1" style="stop-color:#1AAEE2"/>
		</linearGradient>
		
			<polygon style="clip-path:url(#SVGID_00000101094342003842507330000006605784530649527455_);fill:url(#SVGID_00000127045432311851720680000008894396163981349787_);" points="
			228.8,384 20.6,175.7 228.8,-32.5 437,175.7 		"/>
	</g>
	<g>
		<defs>
			<filter id="Adobe_OpacityMaskFilter" filterUnits="userSpaceOnUse" x="150.8" y="43.2" width="156.3" height="265">
				<feColorMatrix  type="matrix" values="1 0 0 0 0  0 1 0 0 0  0 0 1 0 0  0 0 0 1 0"/>
			</filter>
		</defs>
		
			<mask maskUnits="userSpaceOnUse" x="150.8" y="43.2" width="156.3" height="265" id="SVGID_00000121988038030965577500000005026102452483583399_">
			<g class="st2">
				
					<linearGradient id="SVGID_00000153691703222193606020000012384173314776620194_" gradientUnits="userSpaceOnUse" x1="-205.8011" y1="-585.4009" x2="-203.6012" y2="-585.4009" gradientTransform="matrix(0 118.4559 118.4559 0 69517.0938 24423.8066)">
					<stop  offset="0" style="stop-color:#FFFFFF"/>
					<stop  offset="2.815250e-02" style="stop-color:#FFFFFF"/>
					<stop  offset="0.4713" style="stop-color:#000000"/>
					<stop  offset="0.9253" style="stop-color:#000000"/>
					<stop  offset="1" style="stop-color:#000000"/>
				</linearGradient>
				
					<rect x="-753.2" y="-326.2" style="fill:url(#SVGID_00000153691703222193606020000012384173314776620194_);" width="1852.2" height="1309.6"/>
			</g>
		</mask>
		<g style="mask:url(#SVGID_00000121988038030965577500000005026102452483583399_);">
			<g>
				<defs>
					<rect id="SVGID_00000120530877860222651080000010191205046608783770_" x="150.8" y="43.2" width="156.3" height="265"/>
				</defs>
				<clipPath id="SVGID_00000000904550154162738800000004159262331526282369_">
					<use xlink:href="#SVGID_00000120530877860222651080000010191205046608783770_"  style="overflow:visible;"/>
				</clipPath>
				<path style="clip-path:url(#SVGID_00000000904550154162738800000004159262331526282369_);fill:#9AC61E;" d="M222.9,45.4h-0.3
					l-0.3,0l-0.3,0l-0.3,0l-0.3,0l-0.3,0l-0.3,0l-0.3,0l-0.3,0l-0.3,0l-0.3,0l-0.3,0l-0.3,0l-0.3,0l-0.3,0l-0.3,0l-0.3,0.1L218,46
					l-0.3,0.1l-0.3,0.1l-0.3,0.1l-0.3,0.1l-0.3,0.1l-0.3,0.1l-0.3,0.1l-0.2,0.1l-0.3,0.1l-0.2,0.1l-0.2,0.1l-0.2,0.1l-0.2,0.1
					l-0.2,0.1l-0.2,0.1l-0.2,0.1l-0.2,0.1l-0.2,0.1l-0.2,0.1l-0.2,0.1l-0.2,0.1l-0.2,0.1l-0.2,0.1l-0.2,0.1l-0.2,0.1l-0.2,0.1
					l-0.2,0.1l-0.2,0.1l-0.2,0.2l-0.2,0.1l-0.2,0.1v0l-0.2,0.2l-0.2,0.2l-0.2,0.2l-0.2,0.2l-0.2,0.2l-0.2,0.2l-0.2,0.2l-0.2,0.2
					l-0.2,0.2l-0.2,0.2l-0.2,0.2l-0.2,0.2l-0.2,0.2l-0.2,0.2l-0.2,0.2l-47.9,47.9c-8.6,8.6-8.6,22.5,0,31.1l30,30l2.9,2.9
					c6.6,6.6,6.6,17.3,0,23.9l-2.9,2.9l0,0l-30,30c-8.6,8.6-8.6,22.5,0,31.1l47.9,47.9c4.3,4.3,9.5,6.4,15.5,6.4h60
					c9.1,0,16.8-5.2,20.3-13.6c3.5-8.4,1.7-17.5-4.8-24l-77.9-77.9l0,0l-2.9-2.9c-6.6-6.6-6.6-17.3,0-23.9l2.9-2.9L298.4,83
					c0.1-0.1,0.2-0.2,0.3-0.3c0.1-0.1,0.2-0.2,0.3-0.3c0.1-0.1,0.2-0.2,0.3-0.3c0.1-0.1,0.2-0.2,0.3-0.3c0.1-0.1,0.2-0.2,0.3-0.3
					c0.1-0.1,0.2-0.2,0.3-0.3c0.1-0.1,0.2-0.2,0.3-0.3c0.1-0.1,0.2-0.2,0.2-0.3l0.2-0.3c0.1-0.1,0.2-0.2,0.2-0.3
					c0.1-0.1,0.2-0.2,0.2-0.3c0.1-0.1,0.2-0.2,0.2-0.3c0.1-0.1,0.1-0.2,0.2-0.3c0.1-0.1,0.1-0.2,0.2-0.4c0.1-0.1,0.1-0.2,0.2-0.3
					c0.1-0.1,0.1-0.2,0.2-0.4c0.1-0.1,0.1-0.2,0.2-0.4c0.1-0.1,0.1-0.2,0.2-0.4c0.1-0.1,0.1-0.2,0.2-0.4c0.1-0.1,0.1-0.2,0.2-0.4
					c0.1-0.1,0.1-0.2,0.2-0.4c0-0.1,0.1-0.2,0.1-0.4c0.1-0.1,0.1-0.2,0.1-0.4c0-0.1,0.1-0.2,0.1-0.4c0-0.1,0.1-0.3,0.1-0.4
					c0-0.1,0.1-0.2,0.1-0.4c0-0.1,0.1-0.2,0.1-0.4c0-0.1,0.1-0.3,0.1-0.4c0-0.1,0.1-0.3,0.1-0.4c0-0.1,0.1-0.3,0.1-0.4
					c0-0.1,0.1-0.3,0.1-0.4c0-0.1,0.1-0.3,0.1-0.4c0-0.1,0-0.3,0.1-0.4c0-0.1,0-0.3,0.1-0.4c0-0.1,0-0.3,0.1-0.4
					c0-0.1,0-0.3,0.1-0.4c0-0.1,0-0.3,0-0.4c0-0.1,0-0.3,0-0.4c0-0.1,0-0.3,0-0.4c0-0.1,0-0.3,0-0.4c0-0.1,0-0.3,0-0.4
					c0-0.1,0-0.3,0-0.4c0-0.1,0-0.3,0-0.4c0-0.1,0-0.3,0-0.4c0-0.1,0-0.3,0-0.4c0-0.1,0-0.3,0-0.4c0-0.1,0-0.3,0-0.4
					c0-0.1,0-0.3,0-0.4c0-0.1,0-0.3,0-0.4c0-0.1,0-0.3-0.1-0.4c0-0.1,0-0.3-0.1-0.4c0-0.1,0-0.3-0.1-0.4c0-0.1,0-0.3-0.1-0.4h0
					c0-0.1-0.1-0.3-0.1-0.4h0c0-0.1-0.1-0.3-0.1-0.4c0-0.1-0.1-0.3-0.1-0.4c0-0.1-0.1-0.3-0.1-0.4l-0.1-0.4c0-0.1-0.1-0.3-0.1-0.4h0
					c0-0.1-0.1-0.3-0.1-0.4c0-0.1-0.1-0.3-0.1-0.4c0-0.1-0.1-0.3-0.1-0.4c0-0.1-0.1-0.3-0.2-0.4c-0.1-0.1-0.1-0.3-0.2-0.4
					c-0.1-0.1-0.1-0.3-0.2-0.4c-0.1-0.1-0.1-0.3-0.2-0.4c-0.1-0.1-0.1-0.3-0.2-0.4c-0.1-0.1-0.1-0.3-0.2-0.4
					c-0.1-0.1-0.1-0.2-0.2-0.4c-0.1-0.1-0.1-0.2-0.2-0.4c-0.1-0.1-0.1-0.2-0.2-0.4c-0.1-0.1-0.1-0.2-0.2-0.4
					c-0.1-0.1-0.1-0.2-0.2-0.4c-0.1-0.1-0.1-0.2-0.2-0.3c-0.1-0.1-0.2-0.2-0.2-0.3c-0.1-0.1-0.2-0.2-0.2-0.3
					c-0.1-0.1-0.2-0.2-0.2-0.3c-0.1-0.1-0.2-0.2-0.2-0.3c-0.1-0.1-0.2-0.2-0.2-0.3c-0.1-0.1-0.2-0.2-0.3-0.3
					c-0.1-0.1-0.2-0.2-0.3-0.3c-0.1-0.1-0.2-0.2-0.3-0.3c-0.1-0.1-0.2-0.2-0.3-0.3c-0.1-0.1-0.2-0.2-0.3-0.3
					c-0.1-0.1-0.2-0.2-0.3-0.3c-0.1-0.1-0.2-0.2-0.3-0.3c-0.1-0.1-0.2-0.2-0.3-0.3c-0.1-0.1-0.2-0.2-0.3-0.3
					c-0.1-0.1-0.2-0.2-0.3-0.3c-0.1-0.1-0.2-0.2-0.3-0.3c-0.1-0.1-0.2-0.2-0.3-0.3c-0.1-0.1-0.2-0.2-0.3-0.2
					c-0.1-0.1-0.2-0.2-0.3-0.2l-0.3-0.2c-0.1-0.1-0.2-0.2-0.3-0.2c-0.1-0.1-0.2-0.2-0.3-0.2c-0.1-0.1-0.2-0.1-0.3-0.2
					c-0.1-0.1-0.2-0.1-0.3-0.2c-0.1-0.1-0.2-0.1-0.3-0.2c-0.1-0.1-0.2-0.1-0.3-0.2c-0.1-0.1-0.2-0.1-0.3-0.2
					c-0.1-0.1-0.2-0.1-0.3-0.2c-0.1-0.1-0.2-0.1-0.4-0.2c-0.1-0.1-0.2-0.1-0.4-0.2l-0.4-0.2c-0.1-0.1-0.2-0.1-0.4-0.2l-0.4-0.2
					c-0.1,0-0.2-0.1-0.4-0.1l-0.4-0.1c-0.1-0.1-0.3-0.1-0.4-0.1c-0.1,0-0.2-0.1-0.4-0.1c-0.1,0-0.3-0.1-0.4-0.1
					c-0.1,0-0.2-0.1-0.4-0.1c-0.1,0-0.3-0.1-0.4-0.1c-0.1,0-0.3-0.1-0.4-0.1c-0.1,0-0.3-0.1-0.4-0.1c-0.1,0-0.3-0.1-0.4-0.1
					c-0.1,0-0.3,0-0.4-0.1c-0.1,0-0.3,0-0.4-0.1c-0.1,0-0.3,0-0.4-0.1c-0.1,0-0.3,0-0.4-0.1c-0.1,0-0.3,0-0.4-0.1
					c-0.1,0-0.3,0-0.4,0c-0.1,0-0.3,0-0.4,0c-0.1,0-0.3,0-0.4,0c-0.1,0-0.3,0-0.4,0c-0.1,0-0.3,0-0.4,0c-0.1,0-0.3,0-0.4,0H222.9z"
					/>
			</g>
		</g>
	</g>
</g>
</svg>
