<svg width="230" height="52" viewBox="0 0 230 52" fill="none" xmlns="http://www.w3.org/2000/svg">
<path d="M23.098 24.1862L14.4205 11.8699L22.5643 0.554551H14.1863L7.41025 10.5018V0.554551H0V24.1859H7.41025V13.9394L14.2861 24.1859H23.098V24.1862ZM24.8317 24.1862H40.5863V18.2792H32.2412V14.9407H39.5854V9.36684H32.2412V6.46302H40.5863V0.554551H24.8317V24.1862ZM50.3846 7.13007C50.3846 6.75271 50.4843 6.45718 50.6841 6.2453C50.8854 6.03415 51.1408 5.92858 51.4527 5.92858C51.8973 5.92858 52.2761 6.07287 52.587 6.36256C52.8979 6.65225 53.0659 7.13043 53.0878 7.79821H61.0654C60.9763 5.37221 60.0809 3.49161 58.3786 2.15678C56.677 0.82195 54.3781 0.154907 51.4856 0.154907C49.7727 0.154907 48.2315 0.433262 46.863 0.988163C45.4946 1.54526 44.4151 2.36392 43.6253 3.44267C42.8355 4.52215 42.4402 5.82848 42.4402 7.3646C42.418 8.89925 42.7628 10.1574 43.4748 11.136C44.1868 12.1158 45.0379 12.8606 46.029 13.3721C47.0186 13.885 48.2702 14.4066 49.784 14.9411C51.052 15.3864 51.9864 15.7809 52.5874 16.1261C53.1883 16.4713 53.4886 16.9225 53.4886 17.4774C53.4886 17.8792 53.3494 18.1737 53.071 18.3622C52.7934 18.5514 52.454 18.646 52.0529 18.646C50.9629 18.646 50.3627 17.9684 50.2512 16.6105H42.3738C42.5294 19.1691 43.5252 21.1104 45.3612 22.4346C47.1962 23.7588 49.5279 24.4204 52.3536 24.4204C54.2236 24.4204 55.8361 24.0986 57.1939 23.4531C58.5517 22.8079 59.5856 21.9118 60.2983 20.7655C61.0103 19.6203 61.3664 18.3238 61.3664 16.8775C61.3664 15.4978 61.0103 14.3526 60.2983 13.4393C59.5856 12.5275 58.7464 11.8155 57.7784 11.303C56.811 10.7908 55.58 10.2571 54.0902 9.7011C52.7996 9.21159 51.8593 8.7944 51.269 8.44882C50.6786 8.10397 50.3846 7.66452 50.3846 7.13007ZM77.5444 24.1862H84.9539V0.554919H77.5444V9.06693H70.5009V0.554919H63.0914V24.1862H70.5009V14.9736H77.5444V24.1862ZM87.708 24.1862H103.463V18.2792H95.1182V14.9407H102.462V9.36684H95.1182V6.46302H103.463V0.554551H87.708V24.1862ZM125.409 6.42941V0.554551H105.515V6.42941H111.723V24.1859H119.133V6.42941H125.409Z" fill="#474647"/>
<path d="M213.527 9.88131H205.014V32.1471H213.527V9.88131ZM156.921 24.1867H165.39V8.06683C165.39 4.83897 164.409 2.69499 162.449 1.63341C161.211 0.970744 159.096 0.638672 156.103 0.638672H139.585V6.38641H142.349V17.0665C142.349 18.2461 141.604 18.8361 140.117 18.8361C140.057 18.8361 139.622 18.7919 138.812 18.7035V23.9653C139.917 24.2609 141.368 24.407 143.168 24.407C145.998 24.407 148.018 23.8042 149.227 22.594C150.318 21.5046 150.863 19.7862 150.863 17.4424V6.38604H154.534C155.315 6.38604 155.852 6.47519 156.147 6.65163C156.663 6.94789 156.921 7.55138 156.921 8.46538L156.921 24.1867ZM200.072 14.6796L201.156 0.638672H192.643L191.604 14.5024C191.456 16.6552 190.748 18.0101 189.481 18.5709C188.508 18.9983 186.348 19.2116 183.002 19.2116C182.073 19.2116 181.234 19.19 180.481 19.1451C179.73 19.1009 179.045 19.0425 178.425 18.9683L178.204 15.5856C178.484 15.6448 178.845 15.689 179.288 15.7182C179.73 15.7481 180.261 15.7624 180.879 15.7624C183.18 15.7624 184.852 15.4749 185.899 14.8999C187.226 14.1777 187.963 12.8366 188.11 10.8749L188.84 0.638672H181.144L180.725 9.88131C180.696 10.9422 180.032 11.4722 178.735 11.4722C178.661 11.4722 178.561 11.4624 178.436 11.4393C178.311 11.4178 178.16 11.3922 177.984 11.3623L177.297 0.638672H168.697L170.466 23.6786C174.283 24.1652 178.433 24.407 182.915 24.407C189.562 24.407 193.94 23.8484 196.048 22.7266C198.392 21.4601 199.733 18.7773 200.072 14.6796ZM230 0.63904H204.108V6.38678H220.713L219.807 16.028C219.718 16.9862 219.498 17.6569 219.144 18.0401C218.805 18.394 218.186 18.5709 217.287 18.5709H215.916V24.2309H219.453C222.402 24.2309 224.554 23.6194 225.91 22.396C227.237 21.2022 228.07 19.0797 228.41 16.028L230 0.63904Z" fill="#474647"/>
<path d="M59.3764 41.9669H56.7045V51.7637H59.3764V41.9669ZM17.677 40.1926C18.0365 40.1546 18.6659 40.1349 19.5649 40.1349C20.5224 40.1349 21.1668 40.2105 21.5007 40.3618C21.916 40.5638 22.1235 40.9631 22.1235 41.5611V46.5727H17.677V40.1926ZM15.0066 48.3664H24.7665V41.3912C24.7665 40.0754 24.2858 39.1917 23.3224 38.7376C22.624 38.418 21.3717 38.2569 19.5653 38.2569C18.584 38.2569 17.7153 38.2697 16.9603 38.2949C16.2055 38.3204 15.5538 38.3584 15.0066 38.4077V48.3664ZM31.1999 44.0718H33.8433V38.2949H31.1999V44.0718ZM49.6958 45.2514L50.281 38.2949H44.8821V40.1729H47.5156L47.1854 44.8835C47.1225 45.7391 46.8829 46.275 46.469 46.4891C46.2228 46.6209 45.6434 46.6867 44.7316 46.6867C44.3729 46.6867 44.0624 46.6801 43.8019 46.6681C43.5407 46.6553 43.3219 46.6366 43.1454 46.6103L42.721 38.2952H40.0498L40.7107 48.2155C41.2835 48.2977 41.8913 48.3591 42.5372 48.3996C43.1816 48.4409 43.8728 48.461 44.6092 48.461C46.4149 48.461 47.6486 48.2813 48.3094 47.9236C49.12 47.4758 49.5821 46.5855 49.6958 45.2514ZM66.0973 44.6939L66.7764 38.2945H56.3184V40.1725H63.8415L63.3783 45.0056C63.2779 46.0507 62.67 46.5724 61.5569 46.5724H60.5936V48.3839H61.9065C63.2271 48.3839 64.2218 48.0957 64.8889 47.5163C65.5486 46.9442 65.9519 46.0032 66.0973 44.6939ZM73.0111 44.0718H75.6545V38.2949H73.0111V44.0718ZM82.1639 48.3664H84.8065V38.2949H82.1639V48.3664ZM96.1383 48.3664H98.8003V41.6166C98.8003 40.3457 98.4357 39.4591 97.7051 38.9553C97.0129 38.4903 95.8201 38.2569 94.1277 38.2569C93.5611 38.2569 93.0109 38.2675 92.4765 38.2897C91.9406 38.3124 91.4098 38.3453 90.8804 38.3895V40.2482C91.6045 40.1725 92.4538 40.1345 93.4299 40.1345C94.5492 40.1345 95.2893 40.2482 95.6473 40.475C95.9747 40.6825 96.1383 41.1044 96.1383 41.7401V48.3664ZM113.55 47.1393C114.417 46.2644 114.852 44.9212 114.852 43.1089V42.9112C114.852 41.0668 114.316 39.7619 113.247 38.9933C112.428 38.4147 111.236 38.125 109.669 38.125C108.304 38.125 107.228 38.3668 106.441 38.852C105.41 39.5062 104.893 40.4882 104.893 41.7971C104.893 43.0051 105.343 43.8983 106.243 44.4777C106.665 44.748 107.23 44.8828 107.942 44.8828C108.49 44.8828 108.863 44.8328 109.065 44.7316V43.2411C108.6 43.2411 108.266 43.1399 108.064 42.9394C107.807 42.6811 107.678 42.2873 107.678 41.7587V41.674C107.678 40.5408 108.323 39.9753 109.613 39.9753H109.708C110.476 39.9753 111.035 40.1481 111.387 40.4947C111.84 40.9415 112.067 41.747 112.067 42.9112V43.5721C112.067 44.7728 111.821 45.5857 111.331 46.0065C110.884 46.3853 110.104 46.5731 108.99 46.5731C107.662 46.5731 106.523 46.4576 105.572 46.2242V48.0365C106.542 48.3189 107.649 48.461 108.896 48.461C111.136 48.4606 112.687 48.0197 113.55 47.1393ZM121.03 48.3664H123.673V38.2949H121.03V48.3664ZM146.687 48.3664H149.33V41.5611C149.33 40.2584 149.034 39.3678 148.443 38.89C147.938 38.4932 147.07 38.2949 145.837 38.2949H138.815V40.1729H140.173V45.6952C140.173 46.3309 139.856 46.6476 139.221 46.6476C138.887 46.6476 138.603 46.6297 138.37 46.5921V48.2531C138.95 48.3916 139.446 48.4606 139.862 48.4606C141.844 48.4606 142.835 47.4951 142.835 45.563V40.1725H145.177C145.724 40.1725 146.114 40.2737 146.347 40.475C146.573 40.6763 146.687 41.0379 146.687 41.5611V48.3664ZM155.838 48.3664H158.481V38.2949H155.838V48.3664ZM171.993 48.3664H174.665V41.3912C174.665 40.0885 174.205 39.2092 173.286 38.7577C172.588 38.411 171.308 38.2382 169.445 38.2382C168.168 38.2382 166.704 38.2945 165.055 38.4074V48.3664H167.727V40.1725C168.149 40.1345 168.727 40.1163 169.464 40.1163C170.307 40.1163 170.867 40.1671 171.143 40.2675C171.71 40.4695 171.992 40.9002 171.992 41.5611L171.993 48.3664ZM181.079 44.0718H183.722V38.2949H181.079V44.0718ZM199.576 45.2514L200.161 38.2949H194.761V40.1729H197.396L197.065 44.8835C197.002 45.7391 196.763 46.275 196.347 46.4891C196.102 46.6209 195.523 46.6867 194.611 46.6867C194.252 46.6867 193.942 46.6801 193.682 46.6681C193.42 46.6553 193.202 46.6366 193.025 46.6103L192.601 38.2952H189.93L190.591 48.2155C191.163 48.2977 191.771 48.3591 192.417 48.3996C193.061 48.4409 193.753 48.461 194.489 48.461C196.295 48.461 197.528 48.2813 198.189 47.9236C199 47.4758 199.462 46.5855 199.576 45.2514ZM214.995 48.3664V46.5727H213.947V41.5048C213.947 40.2398 213.595 39.3678 212.89 38.89C212.242 38.4684 211.093 38.2572 209.444 38.2572C208.746 38.2572 208.125 38.2678 207.581 38.2901C207.036 38.3128 206.563 38.3456 206.16 38.3898V40.2105C206.563 40.1791 206.978 40.1565 207.405 40.14C207.834 40.1251 208.28 40.1167 208.746 40.1167C209.853 40.1167 210.564 40.2109 210.879 40.3998C211.15 40.5766 211.285 40.9821 211.285 41.617V46.5727H205.847V48.3664H214.995Z" fill="#474647"/>
</svg>
