<svg width="445" height="100" viewBox="0 0 445 100" fill="none" xmlns="http://www.w3.org/2000/svg">
<path d="M44.6502 46.4544L27.8759 22.646L43.6185 0.772542H27.4233L14.3246 20.0014V0.772542H0V46.4537H14.3246V26.6465L27.616 46.4537H44.6502V46.4544ZM48.0017 46.4544H78.4565V35.0357H62.3248V28.5821H76.5216V17.8074H62.3248V12.1941H78.4565V0.772542H48.0017V46.4544ZM97.3973 13.4835C97.3973 12.7541 97.5901 12.1828 97.9763 11.7732C98.3654 11.365 98.859 11.161 99.4621 11.161C100.322 11.161 101.054 11.4399 101.655 11.9999C102.256 12.5599 102.581 13.4842 102.623 14.7751H118.044C117.872 10.0854 116.141 6.45011 112.85 3.86978C109.561 1.28945 105.117 0 99.5257 0C96.2145 0 93.2351 0.538081 90.5898 1.61075C87.9445 2.68765 85.8578 4.27019 84.3311 6.3555C82.8044 8.44222 82.0403 10.9675 82.0403 13.9369C81.9972 16.9035 82.6638 19.3355 84.0401 21.2274C85.4165 23.1213 87.0618 24.5612 88.9777 25.5498C90.8907 26.5413 93.31 27.5497 96.2363 28.5828C98.6874 29.4436 100.494 30.2063 101.655 30.8736C102.817 31.5409 103.398 32.413 103.398 33.4857C103.398 34.2625 103.129 34.8317 102.59 35.196C102.054 35.5618 101.398 35.7447 100.622 35.7447C98.5151 35.7447 97.3549 34.4348 97.1395 31.81H81.9118C82.2126 36.7559 84.1376 40.5085 87.6868 43.0684C91.2339 45.6282 95.7413 46.9071 101.204 46.9071C104.818 46.9071 107.935 46.2849 110.56 45.0372C113.185 43.7901 115.183 42.0578 116.561 39.8419C117.938 37.6281 118.626 35.1219 118.626 32.3262C118.626 29.659 117.938 27.4451 116.561 25.6797C115.183 23.9171 113.561 22.5408 111.69 21.5501C109.82 20.56 107.44 19.5283 104.561 18.4535C102.066 17.5073 100.248 16.7008 99.1069 16.0328C97.9657 15.3662 97.3973 14.5167 97.3973 13.4835ZM149.899 46.4544H164.223V0.773253H149.899V17.2276H136.284V0.773253H121.961V46.4544H136.284V28.6456H149.899V46.4544ZM169.546 46.4544H200.003V35.0357H183.871V28.5821H198.068V17.8074H183.871V12.1941H200.003V0.772542H169.546V46.4544ZM242.425 12.1291V0.772542H203.969V12.1291H215.97V46.4537H230.293V12.1291H242.425Z" fill="#474647"/>
<path d="M412.764 18.8017H396.308V61.8432H412.764V18.8017ZM303.34 46.4551H319.712V15.2941C319.712 9.05445 317.815 4.90996 314.026 2.85784C311.633 1.57686 307.544 0.934937 301.758 0.934937H269.829V12.0458H275.172V32.6912C275.172 34.9714 273.732 36.1119 270.856 36.1119C270.741 36.1119 269.9 36.0265 268.334 35.8556V46.0272C270.47 46.5985 273.276 46.881 276.754 46.881C282.226 46.881 286.13 45.7158 288.467 43.3762C290.575 41.2705 291.63 37.9487 291.63 33.4179V12.0451H298.726C300.235 12.0451 301.275 12.2174 301.844 12.5584C302.842 13.1311 303.341 14.2977 303.341 16.0646L303.34 46.4551ZM386.755 28.0771L388.85 0.934937H372.393L370.384 27.7347C370.099 31.8961 368.73 34.5153 366.281 35.5992C364.399 36.4254 360.225 36.8378 353.758 36.8378C351.962 36.8378 350.338 36.7962 348.884 36.7093C347.431 36.6239 346.107 36.5109 344.909 36.3676L344.481 29.8284C345.022 29.9428 345.721 30.0283 346.576 30.0848C347.432 30.1427 348.458 30.1702 349.653 30.1702C354.1 30.1702 357.333 29.6145 359.356 28.503C361.921 27.1069 363.346 24.5146 363.63 20.7224L365.041 0.934937H350.165L349.356 18.8017C349.298 20.8524 348.016 21.877 345.508 21.877C345.366 21.877 345.173 21.8579 344.93 21.8135C344.689 21.7718 344.397 21.7224 344.056 21.6645L342.729 0.934937H326.104L329.523 45.4728C336.902 46.4135 344.924 46.881 353.588 46.881C366.438 46.881 374.902 45.8012 378.975 43.6326C383.507 41.1843 386.1 35.9982 386.755 28.0771ZM444.608 0.935648H394.556V12.0465H426.656L424.904 30.6836C424.732 32.5359 424.306 33.8324 423.622 34.5732C422.967 35.2574 421.77 35.5992 420.032 35.5992H417.382V46.5406H424.219C429.92 46.5406 434.08 45.3585 436.702 42.9935C439.267 40.6858 440.877 36.5829 441.533 30.6836L444.608 0.935648Z" fill="#474647"/>
<path d="M114.779 80.8257H109.614V99.7636H114.779V80.8257ZM34.1709 77.3958C34.8657 77.3224 36.0825 77.2842 37.8203 77.2842C39.6712 77.2842 40.9169 77.4304 41.5623 77.7228C42.3652 78.1133 42.7663 78.8851 42.7663 80.0411V89.729H34.1709V77.3958ZM29.0088 93.1963H47.8754V79.7127C47.8754 77.1691 46.9461 75.4609 45.084 74.5831C43.7338 73.9653 41.313 73.6538 37.821 73.6538C35.9243 73.6538 34.245 73.6786 32.7854 73.7273C31.3264 73.7767 30.0666 73.8502 29.0088 73.9455V93.1963ZM60.3117 84.8946H65.4216V73.7273H60.3117V84.8946ZM96.0656 87.1748L97.1969 73.7273H86.7605V77.3577H91.8512L91.2129 86.4637C91.0914 88.1175 90.6282 89.1535 89.8281 89.5673C89.3521 89.8222 88.2321 89.9493 86.4695 89.9493C85.7761 89.9493 85.1759 89.9366 84.6724 89.9133C84.1674 89.8886 83.7444 89.8526 83.4034 89.8018L82.5828 73.728H77.4193L78.6968 92.9046C79.804 93.0635 80.9791 93.1822 82.2276 93.2605C83.4733 93.3403 84.8093 93.3792 86.233 93.3792C89.7236 93.3792 92.1083 93.0318 93.3857 92.3404C94.9527 91.4747 95.846 89.7537 96.0656 87.1748ZM127.771 86.0972L129.084 73.7266H108.868V77.357H123.411L122.515 86.6996C122.321 88.7199 121.146 89.7283 118.994 89.7283H117.132V93.2302H119.67C122.223 93.2302 124.146 92.673 125.435 91.553C126.71 90.4472 127.49 88.6281 127.771 86.0972ZM141.136 84.8946H146.246V73.7273H141.136V84.8946ZM158.829 93.1963H163.937V73.7273H158.829V93.1963ZM185.843 93.1963H190.988V80.1485C190.988 77.6917 190.284 75.9778 188.871 75.004C187.533 74.1051 185.228 73.6538 181.956 73.6538C180.861 73.6538 179.797 73.6743 178.764 73.7174C177.728 73.7612 176.702 73.8247 175.679 73.9102V77.5032C177.078 77.357 178.72 77.2835 180.607 77.2835C182.771 77.2835 184.202 77.5032 184.894 77.9417C185.526 78.3428 185.843 79.1584 185.843 80.3871V93.1963ZM219.5 90.8243C221.177 89.133 222.017 86.5364 222.017 83.0331V82.6511C222.017 79.0857 220.982 76.5632 218.915 75.0775C217.333 73.9589 215.028 73.3989 211.999 73.3989C209.359 73.3989 207.28 73.8664 205.759 74.8042C203.765 76.0689 202.767 77.9671 202.767 80.4973C202.767 82.8326 203.635 84.5592 205.376 85.6791C206.191 86.2017 207.285 86.4623 208.66 86.4623C209.719 86.4623 210.441 86.3655 210.83 86.1699V83.2888C209.931 83.2888 209.287 83.0932 208.897 82.7055C208.399 82.2062 208.149 81.445 208.149 80.4232V80.2593C208.149 78.0688 209.396 76.9756 211.89 76.9756H212.073C213.558 76.9756 214.639 77.3097 215.32 77.9798C216.196 78.8435 216.634 80.4006 216.634 82.6511V83.9286C216.634 86.2497 216.158 87.8209 215.211 88.6345C214.347 89.3667 212.839 89.7297 210.686 89.7297C208.119 89.7297 205.918 89.5066 204.079 89.0553V92.5586C205.954 93.1045 208.095 93.3792 210.504 93.3792C214.834 93.3785 217.832 92.5261 219.5 90.8243ZM233.959 93.1963H239.069V73.7273H233.959V93.1963ZM283.557 93.1963H288.667V80.0411C288.667 77.5229 288.093 75.8013 286.951 74.8776C285.976 74.1107 284.298 73.7273 281.914 73.7273H268.339V77.3577H270.965V88.0328C270.965 89.2615 270.353 89.8738 269.124 89.8738C268.479 89.8738 267.93 89.8392 267.48 89.7664V92.9774C268.6 93.245 269.56 93.3785 270.364 93.3785C274.196 93.3785 276.112 91.5121 276.112 87.7772V77.357H280.638C281.695 77.357 282.449 77.5526 282.9 77.9417C283.336 78.3308 283.557 79.0299 283.557 80.0411V93.1963ZM301.246 93.1963H306.356V73.7273H301.246V93.1963ZM332.475 93.1963H337.64V79.7127C337.64 77.1946 336.752 75.4948 334.976 74.622C333.626 73.9519 331.151 73.6178 327.55 73.6178C325.081 73.6178 322.251 73.7266 319.064 73.9448V93.1963H324.229V77.357C325.044 77.2835 326.163 77.2482 327.587 77.2482C329.217 77.2482 330.3 77.3464 330.833 77.5406C331.929 77.9311 332.475 78.7637 332.475 80.0411L332.475 93.1963ZM350.04 84.8946H355.15V73.7273H350.04V84.8946ZM385.795 87.1748L386.926 73.7273H376.489V77.3577H381.581L380.942 86.4637C380.821 88.1175 380.358 89.1535 379.555 89.5673C379.08 89.8222 377.962 89.9493 376.198 89.9493C375.504 89.9493 374.905 89.9366 374.402 89.9133C373.895 89.8886 373.474 89.8526 373.131 89.8018L372.312 73.728H367.149L368.426 92.9046C369.533 93.0635 370.709 93.1822 371.957 93.2605C373.203 93.3403 374.539 93.3792 375.962 93.3792C379.453 93.3792 381.838 93.0318 383.115 92.3404C384.682 91.4747 385.575 89.7537 385.795 87.1748ZM415.602 93.1963V89.729H413.576V79.9324C413.576 77.4869 412.896 75.8013 411.533 74.8776C410.279 74.0627 408.058 73.6546 404.872 73.6546C403.522 73.6546 402.321 73.675 401.269 73.7181C400.216 73.7619 399.301 73.8254 398.523 73.9109V77.4304C399.301 77.3697 400.103 77.3259 400.93 77.2941C401.759 77.2652 402.621 77.2489 403.521 77.2489C405.662 77.2489 407.037 77.4311 407.645 77.7962C408.169 78.138 408.43 78.9218 408.43 80.1492V89.729H397.919V93.1963H415.602Z" fill="#474647"/>
</svg>
